<?xml version="1.0" standalone="no"?>
<!DOCTYPE svg PUBLIC "-//W3C//DTD SVG 20010904//EN"
 "http://www.w3.org/TR/2001/REC-SVG-20010904/DTD/svg10.dtd">
<svg version="1.0" xmlns="http://www.w3.org/2000/svg"
 width="1277.000000pt" height="832.000000pt" viewBox="0 0 1277.000000 832.000000"
 preserveAspectRatio="xMidYMid meet">

<defs>
  <linearGradient id="tdsGrad" x1="0%" y1="0%" x2="100%" y2="100%">
    <stop offset="0%"   stop-color="#1a3fcc"/>
    <stop offset="40%"  stop-color="#1e5fff"/>
    <stop offset="100%" stop-color="#00b4ff"/>
  </linearGradient>
</defs>

<g transform="translate(0.000000,832.000000) scale(0.100000,-0.100000)"
fill="url(#tdsGrad)" stroke="none">
<path d="M3495 6919 c-138 -7 -213 -22 -342 -65 -146 -49 -234 -91 -353 -171
-332 -223 -560 -562 -639 -951 -39 -187 -48 -316 -26 -368 21 -50 70 -101 110
-114 21 -7 375 -11 1048 -13 670 -1 1017 -5 1017 -12 0 -5 -14 -53 -30 -105
-42 -131 -88 -376 -101 -528 -6 -81 -9 -479 -7 -1097 4 -866 6 -980 21 -1064
34 -183 113 -411 194 -561 280 -515 758 -883 1299 -1000 248 -53 359 -60 939
-60 702 0 827 13 1130 121 682 243 1192 873 1280 1582 12 100 15 269 14 942
-1 451 -5 831 -9 845 -7 23 -8 23 -9 4 -1 -12 -9 -25 -18 -29 -28 -12 -62 -14
-68 -5 -3 5 4 7 15 5 20 -4 25 7 22 48 -1 10 2 16 7 13 5 -4 12 0 15 6 3 7 3
2 0 -12 -6 -22 -6 -23 10 -7 16 15 15 20 -8 65 -13 26 -33 55 -43 63 -16 13
-17 12 -5 -2 10 -14 10 -20 -3 -33 -9 -9 -13 -21 -9 -27 4 -7 3 -9 -4 -5 -6 3
-13 2 -17 -4 -3 -5 -19 -10 -36 -10 -16 0 -29 -4 -29 -10 0 -5 -8 -10 -17 -10
-15 0 -16 2 -3 10 13 8 12 10 -2 10 -10 0 -18 5 -18 11 0 5 -5 7 -10 4 -6 -4
-8 -10 -5 -15 2 -4 -6 -10 -20 -12 -13 -3 -22 -1 -19 3 3 5 -2 9 -10 9 -19 0
-21 -21 -4 -38 9 -9 9 -12 1 -12 -7 0 -15 9 -18 21 -9 28 -41 21 -37 -9 3 -20
1 -21 -22 -12 -14 5 -33 7 -44 5 -10 -2 -23 5 -30 15 -10 16 -8 17 19 7 22 -9
34 -9 47 1 9 7 31 19 47 27 28 14 29 15 5 13 -14 -2 -31 -10 -37 -18 -11 -13
-14 -12 -19 8 -3 12 -10 22 -15 22 -5 0 -6 8 -2 18 4 10 -4 6 -20 -11 -15 -15
-27 -23 -27 -18 0 6 -9 11 -19 11 -11 0 -23 5 -27 12 -5 8 -2 9 9 5 10 -4 17
-1 17 6 0 8 4 7 11 -3 9 -13 10 -13 6 0 -2 8 -11 14 -20 14 -9 -1 -15 3 -14 9
1 6 -15 14 -36 17 -35 7 -36 6 -20 -10 10 -9 25 -15 33 -12 8 3 11 1 7 -4 -4
-4 -23 -9 -42 -9 -32 -1 -33 0 -30 32 3 28 1 32 -11 22 -8 -6 -11 -15 -8 -21
3 -5 -6 -6 -23 -2 -41 10 -46 15 -28 28 15 10 14 12 -3 12 -14 0 -19 -6 -16
-19 3 -20 -2 -23 -61 -31 -22 -3 -35 -2 -28 2 7 5 9 13 4 21 -5 7 -13 11 -19
7 -6 -3 -14 -1 -18 5 -5 8 -3 9 7 4 8 -5 11 -4 6 0 -9 10 -57 13 -57 4 0 -14
-51 -5 -63 11 -7 9 -16 18 -20 18 -5 0 -12 3 -15 7 -4 4 -2 6 3 4 6 -1 25 2
43 6 24 6 30 10 20 16 -7 5 119 9 285 9 217 -1 296 -4 291 -12 -5 -7 -3 -8 5
-3 7 4 23 3 34 -2 33 -15 87 -32 87 -27 0 2 -19 14 -42 26 l-43 23 -600 0
-600 0 -53 -30 c-63 -34 -131 -106 -164 -173 l-23 -47 -6 -870 c-6 -983 -1
-922 -89 -1100 -54 -110 -103 -175 -189 -248 -63 -55 -229 -139 -311 -158 -78
-19 -251 -16 -330 5 -236 61 -425 230 -520 463 -56 138 -53 88 -57 1234 -4
1184 -6 1143 62 1284 63 131 190 244 323 285 35 11 100 22 145 25 115 9 122
11 168 52 72 65 69 27 69 803 l0 697 -23 44 c-17 32 -37 50 -72 68 l-48 25
-1441 1 c-793 0 -1490 -3 -1551 -6z m4490 -2369 c-11 -5 -14 -9 -7 -9 6 -1 12
-5 12 -10 0 -5 -26 -8 -57 -8 -45 1 -58 -2 -58 -13 0 -9 8 -14 20 -12 19 2 19
2 2 -9 -13 -8 -22 -7 -33 1 -7 7 -14 9 -14 4 0 -5 -4 -3 -9 5 -5 7 -20 14 -35
14 -24 0 -31 8 -26 32 1 6 -4 4 -11 -2 -10 -10 -16 -10 -28 0 -12 10 -13 9 -6
-3 6 -12 5 -13 -5 -3 -11 10 -17 10 -29 0 -12 -10 -13 -9 -6 2 6 11 4 13 -9 8
-10 -4 -15 -3 -11 3 4 6 71 10 168 9 100 0 154 -4 142 -9z m92 4 c-3 -3 -12
-4 -19 -1 -8 3 -5 6 6 6 11 1 17 -2 13 -5z m-57 -36 c0 -24 -15 -33 -59 -34
-35 -1 -40 1 -25 9 11 6 32 10 48 8 23 -2 28 0 23 13 -4 9 -2 16 3 16 6 0 10
-6 10 -12z m55 -18 c-3 -5 -14 -10 -23 -9 -14 0 -13 2 3 9 27 11 27 11 20 0z
m185 -30 c0 -5 -4 -10 -10 -10 -5 0 -10 5 -10 10 0 6 5 10 10 10 6 0 10 -4 10
-10z m-103 -14 c0 -8 -12 -17 -26 -19 l-26 -5 24 19 c28 23 28 23 28 5z m337
-64 c2 -4 -4 -8 -14 -8 -10 0 -16 4 -14 8 3 4 9 8 14 8 5 0 11 -4 14 -8z
m-1147 -2129 c-3 -10 -5 -4 -5 12 0 17 2 24 5 18 2 -7 2 -21 0 -30z m-10 -70
c-3 -10 -5 -4 -5 12 0 17 2 24 5 18 2 -7 2 -21 0 -30z m-17 -123 c-7 -46 -16
-78 -21 -73 -5 5 -2 43 8 86 9 42 19 75 21 72 3 -2 -1 -41 -8 -85z"/>
<path d="M7830 4530 c-9 -6 -10 -10 -3 -10 6 0 15 5 18 10 8 12 4 12 -15 0z"/>
<path d="M7603 6902 c-103 -36 -172 -103 -218 -210 -19 -45 -20 -73 -23 -592
-2 -379 0 -561 8 -597 15 -69 77 -163 134 -202 94 -65 74 -63 706 -65 l575 -1
57 27 c69 32 137 98 175 170 l28 53 0 585 0 585 -27 57 c-35 76 -98 142 -167
175 l-56 28 -570 2 c-528 3 -574 1 -622 -15z"/>
<path d="M8520 4521 c0 -7 -5 -9 -12 -5 -7 5 -8 3 -3 -5 5 -9 10 -10 18 -2 6
6 8 14 4 18 -4 3 -7 1 -7 -6z"/>
<path d="M8543 4502 c1 -14 5 -18 11 -12 7 7 6 14 -1 21 -9 9 -12 7 -10 -9z"/>
<path d="M8620 4508 c0 -4 7 -8 15 -8 8 0 15 4 15 8 0 5 -7 9 -15 9 -8 0 -15
-4 -15 -9z"/>
<path d="M8915 4490 c10 -11 20 -20 23 -20 3 0 -3 9 -13 20 -10 11 -20 20 -23
20 -3 0 3 -9 13 -20z"/>
<path d="M8328 4479 c-15 -16 -15 -19 -3 -19 8 0 15 5 15 11 0 6 7 9 14 6 10
-4 13 -1 9 9 -7 18 -14 17 -35 -7z"/>
<path d="M8440 4490 c-8 -5 -11 -12 -7 -16 4 -4 13 -2 19 4 15 15 7 24 -12 12z"/>
<path d="M8900 4400 c-9 -6 -10 -10 -3 -10 6 0 15 5 18 10 8 12 4 12 -15 0z"/>
</g>
</svg>
